<?xml version="1.0" standalone="no"?>
<!DOCTYPE svg PUBLIC "-//W3C//DTD SVG 20010904//EN"
 "http://www.w3.org/TR/2001/REC-SVG-20010904/DTD/svg10.dtd">
<svg version="1.0" xmlns="http://www.w3.org/2000/svg"
 width="400.000000pt" height="400.000000pt" viewBox="0 0 400.000000 400.000000"
 preserveAspectRatio="xMidYMid meet">
<metadata>
Created by potrace 1.14, written by Peter Selinger 2001-2017
</metadata>
<g transform="translate(0.000000,400.000000) scale(0.100000,-0.100000)"
fill="#000000" stroke="none">
<path d="M0 2000 l0 -2000 2000 0 2000 0 0 1530 c0 842 -4 1530 -8 1530 -4 0
-13 -5 -20 -12 -9 -9 -12 -8 -12 5 0 9 -4 17 -10 17 -5 0 -10 7 -10 15 0 8 4
15 9 15 6 0 14 19 19 43 l10 42 1 -37 c1 -20 5 -40 11 -43 6 -4 10 22 10 72
-1 71 -2 76 -15 59 -8 -11 -15 -23 -15 -28 0 -4 -4 -8 -10 -8 -19 0 -10 37 15
60 20 19 25 33 25 72 0 36 -4 50 -16 55 -10 4 -20 0 -26 -10 -5 -10 -15 -17
-22 -17 -8 0 -24 -9 -37 -21 l-24 -21 23 6 c22 4 24 2 18 -28 -3 -18 -3 -36 1
-39 12 -13 2 -112 -12 -120 -8 -4 -12 -13 -9 -21 3 -7 -1 -26 -7 -42 -7 -16
-12 -32 -11 -36 1 -5 -4 -8 -11 -8 -6 -1 -1 -7 13 -15 27 -15 18 -19 -15 -6
-11 5 -25 4 -32 -1 -21 -17 -15 -30 9 -22 20 6 21 5 9 -10 -7 -9 -18 -16 -24
-16 -5 0 -41 -18 -78 -39 l-69 -40 0 35 c0 22 6 37 15 40 8 4 15 14 15 24 0
11 10 20 25 24 30 8 32 22 5 31 -26 8 -27 51 -1 65 16 8 20 6 23 -13 3 -19 7
-17 33 23 16 25 31 47 32 49 2 3 8 0 14 -6 7 -7 4 -22 -11 -48 -23 -40 -21
-65 6 -65 13 0 15 7 9 40 -5 32 -4 40 8 40 10 0 13 7 10 20 -4 15 0 20 15 20
11 0 22 6 25 13 6 20 -4 47 -19 47 -8 0 -14 7 -14 15 0 19 -24 19 -39 1 -8
-10 -9 -16 -1 -21 22 -14 10 -35 -20 -35 -19 0 -30 -5 -30 -14 0 -7 -9 -16
-20 -19 -18 -4 -20 -2 -14 16 4 16 -8 8 -42 -26 -31 -31 -49 -58 -50 -75 -1
-15 -3 -30 -3 -34 -1 -5 -6 -8 -11 -8 -11 0 -8 79 3 98 4 5 1 12 -7 15 -9 3
-14 20 -14 43 0 20 -6 40 -13 45 -10 6 -10 10 0 23 10 12 13 80 13 295 l-1
280 45 -5 c36 -3 44 -1 44 12 0 10 -5 14 -15 10 -9 -3 -15 0 -15 8 0 20 -27
40 -35 26 -12 -20 -26 -10 -25 18 1 15 2 46 1 70 l-1 42 -84 0 c-58 0 -86 -4
-89 -12 -4 -10 -6 -10 -6 0 -1 15 -81 17 -81 2 0 -5 -9 -10 -19 -10 -11 0 -23
5 -26 10 -3 6 -17 10 -31 10 -19 0 -24 -5 -24 -25 0 -18 -5 -25 -20 -25 -21 0
-27 15 -10 25 31 19 -21 25 -218 24 -147 -1 -220 -5 -225 -13 -6 -8 -10 -8
-14 2 -2 6 -20 12 -38 12 -18 0 -36 -6 -38 -12 -4 -10 -6 -10 -6 -1 -1 9 -75
12 -303 13 -292 0 -301 0 -285 -18 24 -26 21 -32 -13 -32 -33 0 -41 -24 -17
-49 10 -11 10 -14 -1 -18 -6 -3 -12 -13 -12 -24 0 -10 -4 -19 -10 -19 -5 0
-12 -11 -16 -25 -3 -13 -12 -29 -19 -35 -7 -6 -10 -20 -7 -32 3 -14 1 -19 -6
-14 -7 4 -12 2 -12 -4 0 -23 20 -48 50 -60 35 -14 33 -11 19 -47 l-12 -28 -6
25 c-4 16 -14 25 -27 26 -20 1 -20 1 0 -39 10 -21 20 -58 20 -81 1 -33 -3 -43
-21 -51 -13 -5 -23 -15 -23 -22 0 -15 -118 -9 -133 6 -12 12 4 160 38 367 14
81 25 154 25 161 0 10 -73 13 -374 13 l-373 0 -31 -82 c-81 -217 -115 -304
-126 -315 -15 -17 -75 0 -96 26 -8 10 -44 39 -80 64 -36 25 -74 54 -85 64 -31
29 -75 58 -168 112 l-86 49 -19 -31 c-44 -76 -61 -128 -72 -217 -7 -52 -22
-129 -35 -170 -12 -41 -30 -102 -40 -135 -20 -69 -71 -185 -80 -185 -4 0 -4
43 0 96 4 55 4 95 -1 92 -5 -3 -22 1 -39 8 -22 10 -25 13 -11 14 20 0 20 0 0
15 -16 13 -16 14 -1 9 28 -10 20 4 -13 21 -16 9 -30 12 -30 8 0 -4 -7 2 -15
14 -8 12 -18 49 -21 82 -4 33 -10 58 -14 56 -5 -3 -6 5 -2 17 3 14 2 19 -6 14
-8 -5 -12 0 -12 12 0 15 5 19 20 15 17 -5 20 0 20 31 0 20 -7 48 -16 61 -14
21 -14 30 -4 54 6 17 9 35 5 40 -3 6 -1 19 4 28 6 10 11 14 11 8 0 -5 18 10
39 34 35 40 37 46 23 60 -14 14 -13 16 9 22 13 4 -27 7 -88 8 l-113 1 0 -2000z
m2580 1946 c-6 -6 -15 -4 -24 4 -22 17 -9 32 14 18 12 -8 16 -16 10 -22z m520
21 c17 -14 40 -52 40 -67 0 -5 -7 -10 -15 -10 -8 0 -15 -4 -15 -10 0 -5 -5
-10 -10 -10 -6 0 -8 11 -4 27 6 21 4 25 -9 20 -8 -3 -23 3 -33 14 -16 17 -16
19 -1 19 10 0 17 7 17 15 0 18 10 19 30 2z m80 -13 c0 -17 -22 -14 -28 4 -2 7
3 12 12 12 9 0 16 -7 16 -16z m210 6 c0 -5 -2 -10 -4 -10 -3 0 -8 5 -11 10 -3
6 -1 10 4 10 6 0 11 -4 11 -10z m40 0 c0 -5 -4 -10 -10 -10 -5 0 -10 5 -10 10
0 6 5 10 10 10 6 0 10 -4 10 -10z m-790 -10 c0 -5 -2 -10 -4 -10 -3 0 -8 5
-11 10 -3 6 -1 10 4 10 6 0 11 -4 11 -10z m690 0 c0 -5 -5 -10 -11 -10 -5 0
-7 5 -4 10 3 6 8 10 11 10 2 0 4 -4 4 -10z m-527 -30 c3 -11 2 -20 -3 -20 -12
0 -31 26 -23 33 11 12 21 7 26 -13z m187 6 c0 -2 -7 -7 -16 -10 -8 -3 -12 -2
-9 4 6 10 25 14 25 6z m203 -70 c16 -12 16 -14 1 -20 -29 -11 -44 -6 -44 14 0
23 17 25 43 6z m384 8 c-3 -3 -12 -4 -19 -1 -8 3 -5 6 6 6 11 1 17 -2 13 -5z
m-562 -14 c3 -5 1 -10 -4 -10 -6 0 -11 -6 -11 -14 0 -14 -36 -32 -54 -27 -5 1
-13 -4 -17 -11 -6 -9 -9 -6 -9 10 0 15 6 22 20 22 11 0 20 6 20 14 0 22 43 35
55 16z m362 -7 c0 -10 -5 -21 -11 -25 -15 -10 -36 10 -29 28 7 20 40 18 40 -3z
m-237 -23 c0 -5 -4 -10 -10 -10 -5 0 -10 5 -10 10 0 6 5 10 10 10 6 0 10 -4
10 -10z m-42 -39 c3 -8 -1 -12 -9 -9 -7 2 -15 10 -17 17 -3 8 1 12 9 9 7 -2
15 -10 17 -17z m212 -1 c0 -5 -2 -10 -4 -10 -3 0 -8 5 -11 10 -3 6 -1 10 4 10
6 0 11 -4 11 -10z m-345 -10 c3 -5 1 -10 -4 -10 -6 0 -11 5 -11 10 0 6 2 10 4
10 3 0 8 -4 11 -10z m70 0 c3 -5 -1 -10 -10 -10 -9 0 -13 5 -10 10 3 6 8 10
10 10 2 0 7 -4 10 -10z m275 -20 c-6 -4 -10 -18 -8 -31 2 -18 -2 -24 -16 -24
-10 0 -24 8 -30 18 -9 14 -7 21 6 31 10 7 15 15 12 18 -2 3 7 3 22 0 16 -3 21
-7 14 -12z m-145 -40 c3 -5 -3 -10 -14 -10 -12 0 -21 5 -21 10 0 6 6 10 14 10
8 0 18 -4 21 -10z m45 -10 c0 -13 -5 -18 -15 -14 -16 7 -19 17 -8 27 12 13 23
7 23 -13z m-240 -5 c24 -13 24 -14 4 -15 -22 0 -43 -42 -24 -48 6 -2 10 -10
10 -18 0 -8 5 -14 10 -14 6 0 10 -4 10 -10 0 -5 -6 -10 -12 -10 -19 0 -50 -58
-35 -64 9 -3 8 -5 -1 -5 -14 -1 -35 46 -26 60 3 5 14 9 25 9 24 0 24 3 -2 56
-33 64 -14 91 41 59z m-556 -30 c4 -10 -1 -15 -14 -15 -20 0 -26 11 -13 23 10
11 20 8 27 -8z m876 -31 c0 -8 -4 -12 -10 -9 -5 3 -10 10 -10 16 0 5 5 9 10 9
6 0 10 -7 10 -16z m230 -47 c-1 -21 -1 -21 -15 -3 -8 10 -12 23 -9 28 9 14 24
-2 24 -25z m-1160 13 c0 -5 -7 -7 -15 -4 -8 4 -15 8 -15 10 0 2 7 4 15 4 8 0
15 -4 15 -10z m537 -6 c-3 -3 -12 -4 -19 -1 -8 3 -5 6 6 6 11 1 17 -2 13 -5z
m153 -74 c0 -5 -2 -10 -4 -10 -3 0 -8 5 -11 10 -3 6 -1 10 4 10 6 0 11 -4 11
-10z m292 -38 c-19 -6 -44 6 -37 18 4 7 14 6 28 -2 14 -7 17 -13 9 -16z
m-1087 9 c3 -5 1 -12 -5 -16 -5 -3 -10 1 -10 9 0 18 6 21 15 7z m1291 -28 c-7
-7 -26 7 -26 19 0 6 6 6 15 -2 9 -7 13 -15 11 -17z m-1347 -69 c10 -9 -35 -3
-49 6 -11 8 -7 9 15 4 17 -4 32 -8 34 -10z m1071 -33 c0 -16 -28 -20 -34 -5
-4 9 1 14 14 14 11 0 20 -4 20 -9z m710 -16 c10 -12 10 -15 -4 -15 -9 0 -16 7
-16 15 0 8 2 15 4 15 2 0 9 -7 16 -15z m-660 1 c0 -2 -9 -6 -20 -9 -11 -3 -20
-1 -20 4 0 5 9 9 20 9 11 0 20 -2 20 -4z m-290 -86 c-8 -5 -22 -9 -30 -9 -10
0 -8 3 5 9 27 12 43 12 25 0z m127 -16 c-3 -3 -12 -4 -19 -1 -8 3 -5 6 6 6 11
1 17 -2 13 -5z m128 -4 c3 -6 -1 -7 -9 -4 -18 7 -21 14 -7 14 6 0 13 -4 16
-10z m638 -195 c-3 -9 -8 -14 -10 -11 -3 3 -2 9 2 15 9 16 15 13 8 -4z m-635
-20 c-3 -3 -9 2 -12 12 -6 14 -5 15 5 6 7 -7 10 -15 7 -18z m-48 -5 c0 -5 -4
-10 -10 -10 -5 0 -10 5 -10 10 0 6 5 10 10 10 6 0 10 -4 10 -10z m446 -9 c16
13 18 6 5 -19 -5 -9 -12 -25 -15 -34 -8 -27 -38 -23 -34 5 2 12 9 21 16 19 9
-2 12 5 8 20 -3 13 -3 17 0 10 5 -10 9 -10 20 -1z m-396 -35 c0 -3 -4 -8 -10
-11 -5 -3 -10 -1 -10 4 0 6 5 11 10 11 6 0 10 -2 10 -4z m-23 -52 c5 -13 7
-13 14 -2 6 9 9 4 9 -14 0 -31 -24 -39 -34 -10 -3 9 -9 23 -12 30 -3 6 -1 12
5 12 7 0 14 -7 18 -16z m386 -24 c5 -21 -16 -50 -36 -50 -7 0 -6 4 3 10 13 8
12 10 -5 11 -17 1 -17 2 -2 6 9 2 17 13 17 24 0 25 16 25 23 -1z m-3210 -412
c18 -18 67 -61 110 -96 42 -34 77 -66 77 -71 0 -5 -18 -25 -40 -45 -34 -30
-47 -36 -86 -36 -89 0 -135 51 -149 165 -5 40 -2 56 14 83 12 17 25 32 31 32
5 0 24 -15 43 -32z m-126 -130 c-3 -7 -5 -2 -5 12 0 14 2 19 5 13 2 -7 2 -19
0 -25z m2270 -319 c19 -7 29 -7 31 0 13 40 52 -35 52 -100 0 -22 -10 -73 -22
-112 -20 -63 -23 -94 -23 -252 0 -99 3 -189 5 -199 3 -10 0 -21 -6 -23 -7 -2
-10 5 -7 20 3 14 0 28 -6 31 -6 4 -11 41 -11 89 0 45 -7 135 -15 201 -21 178
-63 229 -160 192 -113 -43 -231 -257 -205 -372 15 -66 97 -128 205 -155 l47
-12 -58 -31 c-32 -17 -78 -49 -101 -72 l-43 -41 0 -102 c0 -95 2 -104 25 -126
l24 -25 -39 0 c-48 0 -101 42 -123 98 -21 51 -47 181 -47 231 0 40 16 59 92
112 l23 17 -32 68 c-24 51 -34 90 -39 148 -6 77 -31 155 -60 187 -13 14 -12
19 7 43 96 122 374 228 486 185z m-81 -363 c17 -13 19 -25 16 -118 -2 -76 1
-110 12 -130 8 -16 11 -30 5 -33 -14 -10 -140 25 -191 52 -31 17 -50 35 -57
55 -12 34 -4 68 11 46 7 -9 8 -7 3 8 -8 29 58 101 110 119 51 18 67 18 91 1z
m43 -103 c-1 -16 -5 -41 -9 -58 -6 -25 -8 -20 -9 28 0 32 3 57 9 57 6 0 9 -12
9 -27z m5 -118 c3 -8 1 -15 -4 -15 -6 0 -10 7 -10 15 0 8 2 15 4 15 2 0 6 -7
10 -15z m283 -111 c30 -15 84 -30 136 -38 47 -7 93 -18 101 -25 54 -45 41
-248 -19 -287 -13 -8 -22 -21 -19 -28 3 -7 -9 -25 -26 -40 -30 -25 -42 -30
-65 -27 -6 0 -16 -20 -23 -45 -8 -30 -25 -57 -49 -79 l-37 -34 -121 2 -121 2
33 44 c19 24 50 79 71 122 36 77 38 79 67 73 30 -6 30 -6 11 14 -18 21 -18 22
8 52 30 36 50 102 40 133 -4 12 -7 36 -5 53 1 17 -8 53 -19 78 -29 67 -31 66
37 30z m-795 -789 c52 -13 115 -43 146 -67 13 -11 17 -68 4 -68 -4 0 -16 6
-27 14 -11 7 -50 25 -87 40 -59 23 -80 26 -185 26 -102 0 -135 -5 -246 -34
-70 -18 -129 -31 -131 -27 -9 14 8 62 24 71 16 9 183 45 245 53 74 10 205 6
257 -8z m2 -121 c46 -16 131 -68 163 -98 14 -13 23 -33 23 -54 l0 -32 -79 54
c-113 77 -158 90 -295 83 -109 -6 -232 -35 -340 -81 -48 -20 -46 -21 -46 8 0
36 10 56 29 56 9 0 66 16 126 36 168 54 317 63 419 28z"/>
<path d="M2304 1509 c-3 -6 -2 -15 3 -20 5 -5 9 -1 9 11 0 23 -2 24 -12 9z"/>
<path d="M3831 3974 c-13 -29 -6 -47 10 -24 8 13 12 12 24 -4 19 -26 5 -42
-49 -58 -22 -6 -47 -16 -53 -21 -16 -12 -17 -47 -2 -47 7 0 17 -7 24 -17 7 -9
17 -13 23 -9 18 11 14 36 -5 37 -11 0 -13 3 -5 6 6 2 12 11 12 19 0 8 6 11 15
8 9 -4 15 0 15 8 0 10 9 13 30 10 26 -4 30 -8 30 -37 0 -21 6 -35 16 -39 20
-8 29 -1 19 13 -3 6 -11 8 -17 5 -8 -5 -9 -1 -4 12 15 38 20 88 8 80 -7 -4
-12 -2 -12 4 0 7 8 9 19 5 12 -3 21 -1 24 7 2 7 2 3 1 -9 -4 -24 11 -40 21
-23 4 6 11 8 16 5 5 -4 8 12 7 37 -1 37 -2 38 -5 11 -2 -18 -9 -33 -15 -33 -6
0 -7 15 -3 40 7 39 6 40 -24 40 -17 0 -31 -5 -31 -12 0 -9 -3 -9 -12 0 -22 22
-64 14 -77 -14z"/>
<path d="M3765 3919 c-4 -6 -5 -12 -2 -15 2 -3 7 2 10 11 7 17 1 20 -8 4z"/>
<path d="M3980 3833 c0 -5 5 -15 10 -23 8 -12 10 -11 10 8 0 12 -4 22 -10 22
-5 0 -10 -3 -10 -7z"/>
<path d="M3660 3784 c0 -8 5 -12 10 -9 6 3 10 10 10 16 0 5 -4 9 -10 9 -5 0
-10 -7 -10 -16z"/>
<path d="M3915 3750 c-3 -11 -10 -20 -14 -20 -4 0 -13 -11 -19 -25 -9 -20 -9
-25 2 -25 8 0 20 14 28 30 7 17 19 30 25 30 7 0 13 7 13 15 0 22 -28 18 -35
-5z"/>
<path d="M3762 3731 c1 -21 5 -28 15 -24 8 3 12 12 9 20 -3 8 -6 19 -6 24 0 5
-4 9 -9 9 -5 0 -9 -13 -9 -29z"/>
<path d="M3640 3725 c0 -8 5 -15 10 -15 6 0 10 7 10 15 0 8 -4 15 -10 15 -5 0
-10 -7 -10 -15z"/>
<path d="M3725 3690 c-3 -5 1 -10 10 -10 9 0 13 5 10 10 -3 6 -8 10 -10 10 -2
0 -7 -4 -10 -10z"/>
<path d="M3940 3671 c0 -17 5 -31 10 -31 6 0 10 9 10 20 0 11 0 23 1 27 0 4
-4 9 -10 11 -6 2 -11 -10 -11 -27z"/>
<path d="M3840 3624 c0 -8 5 -12 10 -9 6 4 8 11 5 16 -9 14 -15 11 -15 -7z"/>
<path d="M3910 3606 c-7 -20 -17 -26 -40 -26 -37 0 -39 -13 -4 -28 30 -14 23
-32 -12 -32 -23 0 -25 -3 -22 -42 2 -35 6 -42 21 -40 16 3 16 1 5 -18 -8 -13
-14 -16 -16 -8 -1 8 -11 19 -22 26 -16 10 -20 8 -26 -10 -4 -13 -2 -24 5 -26
6 -2 11 -13 11 -24 0 -14 -5 -18 -15 -14 -9 3 -15 0 -15 -9 0 -18 20 -31 20
-13 1 8 8 4 19 -9 16 -19 21 -20 36 -9 19 14 12 41 -7 30 -12 -7 -4 9 16 35 6
8 11 37 12 66 0 39 6 58 22 75 l22 24 0 -27 c0 -32 24 -37 40 -8 15 30 13 71
-5 71 -8 0 -15 6 -15 14 0 27 -20 28 -30 2z"/>
<path d="M3790 3600 c0 -11 -6 -20 -12 -20 -15 -1 -63 -38 -57 -44 2 -3 16 -7
31 -11 21 -5 29 -2 38 14 6 12 16 21 23 21 7 0 12 14 13 30 1 23 -3 30 -17 30
-12 0 -19 -7 -19 -20z"/>
<path d="M3985 3467 c-4 -10 -5 -21 -1 -24 10 -10 18 4 13 24 -4 17 -4 17 -12
0z"/>
<path d="M3930 3455 c0 -8 5 -15 10 -15 6 0 10 7 10 15 0 8 -4 15 -10 15 -5 0
-10 -7 -10 -15z"/>
<path d="M3747 3418 c-3 -18 -1 -37 4 -42 5 -6 9 7 9 32 0 50 -6 54 -13 10z"/>
<path d="M3896 3414 c-4 -15 -3 -31 2 -36 6 -6 12 1 16 18 4 15 3 31 -2 36 -6
6 -12 -1 -16 -18z"/>
<path d="M235 3400 c3 -5 8 -10 11 -10 2 0 4 5 4 10 0 6 -5 10 -11 10 -5 0 -7
-4 -4 -10z"/>
<path d="M3695 3260 c-10 -11 -16 -23 -12 -26 9 -9 47 16 47 31 0 21 -14 19
-35 -5z"/>
<path d="M3880 3260 c0 -5 5 -10 10 -10 6 0 10 5 10 10 0 6 -4 10 -10 10 -5 0
-10 -4 -10 -10z"/>
</g>
</svg>
